<svg width="23" height="24" viewBox="0 0 23 24" fill="none" xmlns="http://www.w3.org/2000/svg">
<path d="M9.30985 18.0239C8.87414 18.0239 8.45627 18.197 8.14817 18.5051C7.84008 18.8132 7.66699 19.2311 7.66699 19.6668C7.66699 20.1025 7.84008 20.5204 8.14817 20.8285C8.45627 21.1366 8.87414 21.3096 9.30985 21.3096C9.74556 21.3096 10.1634 21.1366 10.4715 20.8285C10.7796 20.5204 10.9527 20.1025 10.9527 19.6668C10.9527 19.2311 10.7796 18.8132 10.4715 18.5051C10.1634 18.197 9.74556 18.0239 9.30985 18.0239Z" stroke="#082331" stroke-width="1.5" stroke-linecap="round" stroke-linejoin="round"/>
<path d="M18.0716 18.0239C17.6359 18.0239 17.218 18.197 16.9099 18.5051C16.6018 18.8132 16.4287 19.2311 16.4287 19.6668C16.4287 20.1025 16.6018 20.5204 16.9099 20.8285C17.218 21.1366 17.6359 21.3096 18.0716 21.3096C18.5073 21.3096 18.9251 21.1366 19.2332 20.8285C19.5413 20.5204 19.7144 20.1025 19.7144 19.6668C19.7144 19.2311 19.5413 18.8132 19.2332 18.5051C18.9251 18.197 18.5073 18.0239 18.0716 18.0239Z" stroke="#082331" stroke-width="1.5" stroke-linecap="round" stroke-linejoin="round"/>
<path d="M1.0957 1.59521H4.87925L7.41423 14.3048C7.50073 14.7418 7.73764 15.1343 8.08349 15.4137C8.42934 15.6931 8.8621 15.8415 9.30601 15.833H18.5C18.9439 15.8415 19.3767 15.6931 19.7226 15.4137C20.0684 15.1343 20.3053 14.7418 20.3918 14.3048L21.9052 6.34113H5.82514" stroke="#082331" stroke-width="1.5" stroke-linecap="round" stroke-linejoin="round"/>
<g clip-path="url(#clip0_1121_2037)">
<path d="M0.958008 1.4585H4.79134L7.35967 14.2906C7.44731 14.7318 7.68734 15.1281 8.03774 15.4102C8.38814 15.6923 8.82659 15.8421 9.27634 15.8335H18.5913C19.0411 15.8421 19.4795 15.6923 19.8299 15.4102C20.1803 15.1281 20.4204 14.7318 20.508 14.2906L22.0413 6.25016H5.74967" stroke="#082331" stroke-width="1.5" stroke-linecap="round" stroke-linejoin="round"/>
</g>
<defs>
<clipPath id="clip0_1121_2037">
<rect width="23" height="23" fill="white" transform="translate(0 0.5)"/>
</clipPath>
</defs>
</svg>
