<svg width="22" height="22" viewBox="0 0 22 22" fill="none" xmlns="http://www.w3.org/2000/svg">
<path d="M16.565 4.18479C16.3177 4.18479 16.0759 4.25813 15.8702 4.39554C15.6646 4.53295 15.5043 4.72825 15.4097 4.95676C15.315 5.18526 15.2902 5.4367 15.3385 5.67928C15.3868 5.92186 15.5059 6.14468 15.6807 6.31957C15.8556 6.49446 16.0785 6.61356 16.321 6.66181C16.5636 6.71006 16.8151 6.6853 17.0436 6.59065C17.2721 6.496 17.4674 6.33572 17.6048 6.13007C17.7422 5.92442 17.8155 5.68264 17.8155 5.43531C17.8155 5.10365 17.6838 4.78558 17.4493 4.55106C17.2147 4.31654 16.8967 4.18479 16.565 4.18479ZM21.3587 6.70668C21.3384 5.84204 21.1765 4.98658 20.8793 4.17436C20.6143 3.47942 20.2019 2.85014 19.6705 2.32984C19.1544 1.79568 18.5237 1.38587 17.8259 1.13142C17.0159 0.825206 16.1595 0.659563 15.2936 0.641628C14.189 0.579102 13.8347 0.579102 11.0002 0.579102C8.16563 0.579102 7.81131 0.579102 6.70668 0.641628C5.84085 0.659563 4.98444 0.825206 4.17436 1.13142C3.4779 1.38845 2.8477 1.79791 2.32984 2.32984C1.79568 2.84587 1.38587 3.47661 1.13142 4.17436C0.825206 4.98444 0.659563 5.84085 0.641628 6.70668C0.579102 7.81131 0.579102 8.16563 0.579102 11.0002C0.579102 13.8347 0.579102 14.189 0.641628 15.2936C0.659563 16.1595 0.825206 17.0159 1.13142 17.8259C1.38587 18.5237 1.79568 19.1544 2.32984 19.6705C2.8477 20.2024 3.4779 20.6119 4.17436 20.8689C4.98444 21.1751 5.84085 21.3407 6.70668 21.3587C7.81131 21.4212 8.16563 21.4212 11.0002 21.4212C13.8347 21.4212 14.189 21.4212 15.2936 21.3587C16.1595 21.3407 17.0159 21.1751 17.8259 20.8689C18.5237 20.6144 19.1544 20.2046 19.6705 19.6705C20.2043 19.1521 20.6171 18.5223 20.8793 17.8259C21.1765 17.0137 21.3384 16.1583 21.3587 15.2936C21.3587 14.189 21.4212 13.8347 21.4212 11.0002C21.4212 8.16563 21.4212 7.81131 21.3587 6.70668ZM19.4829 15.1686C19.4753 15.8301 19.3555 16.4855 19.1286 17.1069C18.9622 17.5604 18.6949 17.9702 18.347 18.3053C18.009 18.6497 17.6 18.9164 17.1486 19.0869C16.5272 19.3138 15.8718 19.4336 15.2103 19.4412C14.1682 19.4933 13.7826 19.5037 11.0418 19.5037C8.3011 19.5037 7.91552 19.5037 6.87342 19.4412C6.18656 19.4541 5.50263 19.3483 4.85173 19.1286C4.42007 18.9494 4.02988 18.6834 3.70542 18.347C3.35953 18.0122 3.09562 17.6021 2.93426 17.1486C2.67984 16.5183 2.53872 15.848 2.51742 15.1686C2.51742 14.1265 2.45489 13.7409 2.45489 11.0002C2.45489 8.25942 2.45489 7.87384 2.51742 6.83173C2.52209 6.15547 2.64554 5.48528 2.88215 4.85173C3.06561 4.41187 3.34721 4.01978 3.70542 3.70542C4.02202 3.34711 4.41331 3.06254 4.85173 2.87173C5.48695 2.64252 6.15645 2.52271 6.83173 2.51742C7.87384 2.51742 8.25942 2.45489 11.0002 2.45489C13.7409 2.45489 14.1265 2.45489 15.1686 2.51742C15.8301 2.525 16.4855 2.64481 17.1069 2.87173C17.5805 3.04749 18.0055 3.33323 18.347 3.70542C18.6885 4.02553 18.9553 4.4169 19.1286 4.85173C19.3602 5.48631 19.4801 6.15622 19.4829 6.83173C19.535 7.87384 19.5454 8.25942 19.5454 11.0002C19.5454 13.7409 19.535 14.1265 19.4829 15.1686ZM11.0002 5.65415C9.94326 5.65621 8.91069 5.9715 8.03292 6.56018C7.15515 7.14886 6.47156 7.98451 6.06853 8.96154C5.6655 9.93857 5.56112 11.0131 5.76857 12.0495C5.97602 13.0858 6.486 14.0374 7.23407 14.784C7.98213 15.5306 8.93471 16.0387 9.97145 16.2442C11.0082 16.4496 12.0826 16.3431 13.0588 15.9382C14.035 15.5333 14.8694 14.8481 15.4563 13.9691C16.0433 13.0902 16.3566 12.057 16.3566 11.0002C16.358 10.2968 16.2203 9.6002 15.9514 8.95029C15.6826 8.30038 15.288 7.71003 14.7902 7.2132C14.2924 6.71636 13.7012 6.32285 13.0508 6.05529C12.4004 5.78773 11.7035 5.65141 11.0002 5.65415ZM11.0002 14.4704C10.3138 14.4704 9.64288 14.2668 9.07221 13.8855C8.50154 13.5042 8.05675 12.9622 7.7941 12.3281C7.53145 11.694 7.46272 10.9963 7.59662 10.3232C7.73052 9.65 8.06103 9.03166 8.54635 8.54635C9.03166 8.06103 9.65 7.73052 10.3232 7.59662C10.9963 7.46272 11.694 7.53145 12.3281 7.7941C12.9622 8.05675 13.5042 8.50154 13.8855 9.07221C14.2668 9.64288 14.4704 10.3138 14.4704 11.0002C14.4704 11.4559 14.3806 11.9071 14.2062 12.3281C14.0318 12.7492 13.7762 13.1317 13.454 13.454C13.1317 13.7762 12.7492 14.0318 12.3281 14.2062C11.9071 14.3806 11.4559 14.4704 11.0002 14.4704Z" fill="#799EB1"/>
</svg>
