<svg width="241" height="57" viewBox="0 0 241 57" fill="none" xmlns="http://www.w3.org/2000/svg">
<g clip-path="url(#clip0_1152_899)">
<path d="M40.5655 29.6535L38.1441 28.2293L39.2876 27.5722C47.7863 22.6882 49.3653 10.9612 42.1635 4.33986C39.3636 1.7655 35.2371 -0.0174669 29.1788 0.00403083C33.8927 4.03486 37.7697 13.4119 34.9386 19.1518C34.8925 19.2445 34.8315 19.352 34.7582 19.4716C33.593 21.3607 31.4876 22.4786 29.2534 22.4786H12.1585V10.8376H28.7434C31.082 10.8376 33.2484 12.0576 34.4449 14.0488C34.3295 13.3864 34.1749 12.7334 33.9809 12.0912C31.7996 4.84506 24.9017 0 17.2685 0H0V57H16.4804C19.4634 57 22.4247 56.4478 25.1879 55.3312C25.4457 55.2264 25.6586 55.1351 25.8024 55.0598C30.8718 52.4667 32.756 48.2921 34.4516 43.1541L33.8778 43.7439C32.3734 45.2891 30.2993 46.1611 28.1316 46.1611H12.1585V33.3162H28.2808C29.8991 33.3162 31.5039 33.7784 32.7953 34.7444C32.7967 34.7444 32.798 34.7471 32.8007 34.7485C37.8524 38.6382 37.3424 46.5346 36.679 50.5843C36.3426 52.6386 36.1541 54.7145 36.1541 56.7944V57H47.8215V42.2754C47.8215 37.0944 45.0637 32.2977 40.5668 29.6548L40.5655 29.6535Z" fill="white"/>
<path d="M61.7168 37.6438H64.7011V46.6944H66.6084V37.6438H69.5968V36.0771H61.7168V37.6438Z" fill="white"/>
<path d="M82.9353 38.9028C82.9353 37.0499 81.53 36.0771 79.5508 36.0771H75.3809V46.6944H77.2434V42.157H78.8427C80.3674 42.157 80.8504 42.6407 80.8504 43.9547V44.2114C80.8504 45.4502 80.8924 46.2563 81.0443 46.6944H82.8797C82.778 46.0884 82.7346 45.1841 82.7346 44.2302V43.983C82.7346 42.6219 82.3195 41.7754 81.237 41.3858C82.1133 41.0713 82.9353 40.3807 82.9353 38.9041V38.9028ZM78.9933 40.6535H77.2434V37.582H79.2985C80.3118 37.582 81.0471 38.02 81.0471 39.0559C81.0471 40.3377 80.1545 40.6548 78.9933 40.6548V40.6535Z" fill="white"/>
<path d="M91.7487 36.0771C91.3566 37.2461 88.7494 45.6638 88.3994 46.6944H90.2673L91.122 43.9292H94.7968L95.7002 46.6944H97.6957L94.1836 36.0771H91.7487ZM91.4977 42.3626C92.1204 40.3834 92.6304 38.7348 92.9031 37.5296H92.9234C93.154 38.4715 93.6559 40.0112 94.4047 42.3626H91.4977Z" fill="white"/>
<path d="M105.356 36.0771H103.465V46.6944H105.356V36.0771Z" fill="white"/>
<path d="M118.862 39.67C118.862 41.4005 118.877 43.1271 118.982 44.4398H118.955C118.78 43.948 118.244 42.9108 114.688 36.0771H112.25V46.6944H113.988V43.0895C113.988 41.1896 113.986 39.3744 113.908 38.0227H113.924C114.106 38.4365 114.473 39.2212 118.285 46.6957H120.605V36.0785H118.862V39.6713V39.67Z" fill="white"/>
<path d="M129.384 36.0771H127.493V46.6944H129.384V36.0771Z" fill="white"/>
<path d="M142.89 39.67C142.89 41.4005 142.905 43.1271 143.011 44.4398H142.984C142.809 43.948 142.273 42.9108 138.716 36.0771H136.278V46.6944H138.016V43.0895C138.016 41.1896 138.015 39.3744 137.936 38.0227H137.952C138.134 38.4365 138.502 39.2212 142.313 46.6957H144.633V36.0785H142.89V39.6713V39.67Z" fill="white"/>
<path d="M155.709 37.4572C157.204 37.4572 157.758 38.2486 158 39.0817H159.858C159.576 37.2759 158.269 35.9336 155.812 35.9336C152.708 35.9336 151.01 38.3857 151.01 41.4424C151.01 44.4991 152.446 46.8477 155.249 46.8477C156.656 46.8477 157.723 46.4715 158.278 45.359C158.305 45.8857 158.358 46.3614 158.426 46.6932H159.835V40.8351H155.536V42.4394H157.961V42.4944C157.961 44.0624 157.497 45.3348 155.649 45.3348C153.802 45.3348 152.958 43.5572 152.958 41.4518C152.958 39.3464 153.723 37.4546 155.707 37.4546L155.709 37.4572Z" fill="white"/>
<path d="M178.802 37.4572C180.296 37.4572 180.851 38.2486 181.093 39.0817H182.951C182.669 37.2759 181.361 35.9336 178.905 35.9336C175.801 35.9336 174.103 38.3857 174.103 41.4424C174.103 44.4991 175.539 46.8477 178.342 46.8477C179.748 46.8477 180.816 46.4715 181.371 45.359C181.398 45.8857 181.451 46.3614 181.519 46.6932H182.928V40.8351H178.629V42.4394H181.053V42.4944C181.053 44.0624 180.589 45.3348 178.742 45.3348C176.894 45.3348 176.051 43.5572 176.051 41.4518C176.051 39.3464 176.816 37.4546 178.8 37.4546L178.802 37.4572Z" fill="white"/>
<path d="M197.099 38.9028C197.099 37.0499 195.693 36.0771 193.715 36.0771H189.545V46.6944H191.407V42.157H193.007C194.532 42.157 195.014 42.6407 195.014 43.9547V44.2114C195.014 45.4502 195.056 46.2563 195.208 46.6944H197.044C196.942 46.0884 196.899 45.1841 196.899 44.2302V43.983C196.899 42.6219 196.484 41.7754 195.401 41.3858C196.277 41.0713 197.099 40.3807 197.099 38.9041V38.9028ZM193.157 40.6535H191.407V37.582H193.463C194.476 37.582 195.211 38.02 195.211 39.0559C195.211 40.3377 194.319 40.6548 193.157 40.6548V40.6535Z" fill="white"/>
<path d="M207.711 35.9336C204.391 35.9336 202.94 38.6463 202.94 41.3174C202.94 44.3903 204.381 46.8491 207.569 46.8491C210.757 46.8491 212.334 44.3836 212.334 41.3309C212.334 38.2782 210.853 35.9336 207.711 35.9336ZM207.654 45.3362C205.811 45.3362 204.902 43.5613 204.902 41.3148C204.902 39.0682 205.719 37.4465 207.631 37.4465C209.544 37.4465 210.396 39.2187 210.396 41.3349C210.396 43.65 209.634 45.3362 207.654 45.3362Z" fill="white"/>
<path d="M224.809 42.8274C224.809 44.2463 224.411 45.3319 222.686 45.3319C220.96 45.3319 220.517 44.1966 220.517 42.8328V36.0785H218.616V42.9161C218.616 45.2513 219.619 46.8489 222.644 46.8489C225.669 46.8489 226.724 45.1076 226.724 42.8785V36.0771H224.809V42.8274Z" fill="white"/>
<path d="M237.325 36.0771H233.497V46.6944H235.393V42.4365H237.143C239.416 42.4365 241.001 41.3374 241.001 39.1715C241.001 37.0056 239.334 36.0771 237.327 36.0771H237.325ZM237.034 40.9397H235.393V37.582H237.084C238.26 37.582 239.074 38.0711 239.074 39.2104C239.074 40.4949 238.276 40.941 237.034 40.941V40.9397Z" fill="white"/>
<path d="M75.1202 19.7954C76.5527 19.2351 77.9119 17.9815 77.9119 15.4958C77.9119 12.7172 76.0019 10.0757 70.8715 10.0757H61.3867V31.2389H70.725C75.7265 31.2389 78.6064 28.6941 78.6064 24.8205C78.6064 21.9317 76.7656 20.4309 75.1202 19.7954ZM67.099 13.9775H69.6629C71.2066 13.9775 72.1955 14.6372 72.1955 16.1313C72.1955 17.6254 71.3938 18.265 69.5313 18.265H67.0977V13.9775H67.099ZM69.7239 27.3572H67.099V22.0593H69.4797C71.5837 22.0593 72.5645 22.9596 72.5645 24.7224C72.5645 26.6532 71.2934 27.3559 69.7239 27.3559V27.3572Z" fill="white"/>
<path d="M85.1935 25.5933H80.0645V31.2284H85.1935V25.5933Z" fill="white"/>
<path d="M104.169 15.8774C104.169 12.5184 101.608 10.0757 96.9171 10.0757H87.1719V31.2389H92.9059V23.1101H94.9407C97.2115 23.1101 97.944 23.7738 97.944 25.9854V26.5833C97.944 29.0112 98.0485 30.3642 98.3605 31.2389H104.013C103.835 30.2057 103.765 28.3569 103.765 26.5887V25.9357C103.765 23.501 103.102 21.71 100.88 20.8649C102.711 20.1434 104.168 18.7191 104.168 15.8761L104.169 15.8774ZM95.3829 18.9556H92.9073V14.2086H95.756C97.2508 14.2086 98.37 14.8482 98.37 16.5062C98.37 18.2986 97.1328 18.957 95.3829 18.957V18.9556Z" fill="white"/>
<path d="M111.344 25.5933H106.215V31.2284H111.344V25.5933Z" fill="white"/>
<path d="M128.221 27.3508C125.468 27.3508 124.571 24.6153 124.571 20.6798C124.571 16.7444 125.458 13.9833 128.213 13.9833C130.514 13.9833 131.043 15.4115 131.349 17.0212H137.13C136.963 13.7629 134.8 9.70117 128.303 9.70117C121.805 9.70117 118.464 14.643 118.464 20.7C118.464 26.757 120.876 31.6356 128.094 31.6356C133.943 31.6356 136.649 28.38 137.233 24.2108H131.432C131.154 25.6566 130.537 27.3522 128.22 27.3522L128.221 27.3508Z" fill="white"/>
<path d="M148.836 9.69971C141.614 9.69971 138.623 15.0137 138.623 20.5238C138.623 26.6977 141.554 31.6342 148.503 31.6342C155.818 31.6342 158.759 26.7286 158.759 20.5426C158.759 14.8175 155.738 9.69971 148.836 9.69971ZM148.722 27.3722C145.956 27.3722 144.749 24.5614 144.749 20.501C144.749 16.4406 145.815 13.9737 148.65 13.9737C151.751 13.9737 152.652 16.7564 152.652 20.4889C152.652 24.7858 151.72 27.3722 148.721 27.3722H148.722Z" fill="white"/>
<path d="M167.011 10.0757H161.117V31.2389H175.446L176.044 26.8198H167.011V10.0757Z" fill="white"/>
<path d="M183.394 10.0757H177.5V31.2389H191.829L192.427 26.8198H183.394V10.0757Z" fill="white"/>
<path d="M199.777 10.0757H193.883V31.2389H199.777V10.0757Z" fill="white"/>
<path d="M215.667 14.7286C215.667 18.0164 215.742 21.6415 215.96 24.1151H215.854C215.597 23.2256 214.676 20.7869 210.154 10.0757H203.024V31.2389H208.404V26.508C208.404 22.8454 208.395 19.2216 208.206 16.564H208.27C208.54 17.3581 209.255 19.262 214.179 31.2389H221.058V10.0757H215.667V14.7286Z" fill="white"/>
<path d="M233.01 18.0099C230.153 17.2078 229.202 16.8262 229.202 15.5162C229.202 14.3849 229.988 13.7211 231.438 13.7211C233.326 13.7211 233.938 14.8108 234.11 16.1343H239.68C239.441 12.2176 236.7 9.69971 231.414 9.69971C226.942 9.69971 223.437 11.8979 223.437 16.1638C223.437 19.1265 225.035 21.1338 230.353 22.5594C233.264 23.3521 234.285 24.0401 234.285 25.5704C234.285 26.7273 233.663 27.5429 231.698 27.5429C229.734 27.5429 228.742 26.4908 228.517 24.771H222.895C223.133 28.9926 226.242 31.6153 231.525 31.6153C237.187 31.6153 240.209 28.955 240.209 24.9268C240.209 21.7156 238.644 19.5967 233.009 18.0086L233.01 18.0099Z" fill="white"/>
</g>
<defs>
<clipPath id="clip0_1152_899">
<rect width="241" height="57" fill="white"/>
</clipPath>
</defs>
</svg>
