<svg width="20" height="20" viewBox="0 0 20 20" fill="none" xmlns="http://www.w3.org/2000/svg">
<path d="M0.68264 4.59368C0.226729 4.17038 0 3.64642 0 3.023C0 2.39957 0.227941 1.85254 0.68264 1.42803C1.13855 1.00473 1.72542 0.79248 2.44445 0.79248C3.16348 0.79248 3.72732 1.00473 4.18201 1.42803C4.63793 1.85133 4.86466 2.38381 4.86466 3.023C4.86466 3.66219 4.63671 4.17038 4.18201 4.59368C3.7261 5.01698 3.14772 5.22923 2.44445 5.22923C1.74118 5.22923 1.13855 5.01698 0.68264 4.59368ZM4.48151 7.02188V19.9998H0.381935V7.02188H4.48151Z" fill="#799EB1"/>
<path d="M18.1289 8.30361C19.0225 9.27392 19.4687 10.6057 19.4687 12.3013V19.7702H15.5753V12.8277C15.5753 11.9726 15.3534 11.3079 14.9109 10.8349C14.4683 10.3619 13.8717 10.1242 13.1248 10.1242C12.3779 10.1242 11.7813 10.3607 11.3387 10.8349C10.8962 11.3079 10.6743 11.9726 10.6743 12.8277V19.7702H6.75781V6.98522H10.6743V8.68083C11.0708 8.11562 11.6055 7.66928 12.2773 7.34058C12.949 7.01189 13.7044 6.84814 14.5447 6.84814C16.0409 6.84814 17.2365 7.3333 18.1289 8.30361Z" fill="#799EB1"/>
</svg>
