<svg width="241" height="57" viewBox="0 0 241 57" fill="none" xmlns="http://www.w3.org/2000/svg">
<g clip-path="url(#clip0_1121_1987)">
<path d="M40.5655 29.6535L38.1441 28.2293L39.2876 27.5722C47.7863 22.6882 49.3653 10.9612 42.1635 4.33986C39.3636 1.7655 35.2371 -0.0174669 29.1788 0.00403083C33.8927 4.03486 37.7697 13.4119 34.9386 19.1518C34.8925 19.2445 34.8315 19.352 34.7582 19.4716C33.593 21.3607 31.4876 22.4786 29.2534 22.4786H12.1585V10.8376H28.7434C31.082 10.8376 33.2484 12.0576 34.4449 14.0488C34.3295 13.3864 34.1749 12.7334 33.9809 12.0912C31.7996 4.84506 24.9017 0 17.2685 0H0V57H16.4804C19.4634 57 22.4247 56.4478 25.1879 55.3312C25.4457 55.2264 25.6586 55.1351 25.8024 55.0598C30.8718 52.4667 32.756 48.2921 34.4516 43.1541L33.8778 43.7439C32.3734 45.2891 30.2993 46.1611 28.1316 46.1611H12.1585V33.3162H28.2808C29.8991 33.3162 31.5039 33.7784 32.7953 34.7444C32.7967 34.7444 32.798 34.7471 32.8007 34.7485C37.8524 38.6382 37.3424 46.5346 36.679 50.5843C36.3426 52.6386 36.1541 54.7145 36.1541 56.7944V57H47.8215V42.2754C47.8215 37.0944 45.0637 32.2977 40.5668 29.6548L40.5655 29.6535Z" fill="url(#paint0_linear_1121_1987)"/>
<path d="M61.7163 37.6438H64.7007V46.6944H66.6079V37.6438H69.5964V36.0771H61.7163V37.6438Z" fill="#1176C1"/>
<path d="M82.9349 38.9028C82.9349 37.0499 81.5295 36.0771 79.5503 36.0771H75.3804V46.6944H77.2429V42.157H78.8422C80.367 42.157 80.8499 42.6407 80.8499 43.9547V44.2114C80.8499 45.4502 80.8919 46.2563 81.0439 46.6944H82.8792C82.7775 46.0884 82.7341 45.1841 82.7341 44.2302V43.983C82.7341 42.6219 82.319 41.7754 81.2365 41.3858C82.1128 41.0713 82.9349 40.3807 82.9349 38.9041V38.9028ZM78.9928 40.6535H77.2429V37.582H79.298C80.3113 37.582 81.0466 38.02 81.0466 39.0559C81.0466 40.3377 80.154 40.6548 78.9928 40.6548V40.6535Z" fill="#1176C1"/>
<path d="M91.7482 36.0771C91.3561 37.2461 88.7489 45.6638 88.3989 46.6944H90.2669L91.1215 43.9292H94.7963L95.6997 46.6944H97.6952L94.1831 36.0771H91.7482ZM91.4972 42.3626C92.1199 40.3834 92.6299 38.7348 92.9026 37.5296H92.9229C93.1535 38.4715 93.6555 40.0112 94.4043 42.3626H91.4972Z" fill="#1176C1"/>
<path d="M105.356 36.0771H103.465V46.6944H105.356V36.0771Z" fill="#1176C1"/>
<path d="M118.861 39.67C118.861 41.4005 118.876 43.1271 118.982 44.4398H118.955C118.78 43.948 118.244 42.9108 114.687 36.0771H112.25V46.6944H113.987V43.0895C113.987 41.1896 113.986 39.3744 113.907 38.0227H113.923C114.105 38.4365 114.473 39.2212 118.285 46.6957H120.604V36.0785H118.861V39.6713V39.67Z" fill="#1176C1"/>
<path d="M129.384 36.0771H127.493V46.6944H129.384V36.0771Z" fill="#1176C1"/>
<path d="M142.89 39.67C142.89 41.4005 142.904 43.1271 143.01 44.4398H142.983C142.808 43.948 142.272 42.9108 138.716 36.0771H136.278V46.6944H138.016V43.0895C138.016 41.1896 138.014 39.3744 137.936 38.0227H137.952C138.134 38.4365 138.501 39.2212 142.313 46.6957H144.633V36.0785H142.89V39.6713V39.67Z" fill="#1176C1"/>
<path d="M155.708 37.4572C157.203 37.4572 157.758 38.2486 157.999 39.0817H159.858C159.576 37.2759 158.268 35.9336 155.811 35.9336C152.708 35.9336 151.009 38.3857 151.009 41.4424C151.009 44.4991 152.446 46.8477 155.248 46.8477C156.655 46.8477 157.723 46.4715 158.278 45.359C158.305 45.8857 158.358 46.3614 158.425 46.6932H159.835V40.8351H155.536V42.4394H157.96V42.4944C157.96 44.0624 157.496 45.3348 155.649 45.3348C153.801 45.3348 152.957 43.5572 152.957 41.4518C152.957 39.3464 153.722 37.4546 155.707 37.4546L155.708 37.4572Z" fill="#1176C1"/>
<path d="M178.801 37.4572C180.295 37.4572 180.85 38.2486 181.092 39.0817H182.95C182.668 37.2759 181.36 35.9336 178.904 35.9336C175.8 35.9336 174.102 38.3857 174.102 41.4424C174.102 44.4991 175.538 46.8477 178.341 46.8477C179.747 46.8477 180.815 46.4715 181.37 45.359C181.397 45.8857 181.45 46.3614 181.518 46.6932H182.927V40.8351H178.628V42.4394H181.052V42.4944C181.052 44.0624 180.588 45.3348 178.741 45.3348C176.893 45.3348 176.05 43.5572 176.05 41.4518C176.05 39.3464 176.815 37.4546 178.799 37.4546L178.801 37.4572Z" fill="#1176C1"/>
<path d="M197.099 38.9028C197.099 37.0499 195.692 36.0771 193.714 36.0771H189.544V46.6944H191.407V42.157H193.006C194.531 42.157 195.014 42.6407 195.014 43.9547V44.2114C195.014 45.4502 195.056 46.2563 195.208 46.6944H197.043C196.942 46.0884 196.898 45.1841 196.898 44.2302V43.983C196.898 42.6219 196.483 41.7754 195.401 41.3858C196.277 41.0713 197.099 40.3807 197.099 38.9041V38.9028ZM193.157 40.6535H191.407V37.582H193.462C194.475 37.582 195.211 38.02 195.211 39.0559C195.211 40.3377 194.318 40.6548 193.157 40.6548V40.6535Z" fill="#1176C1"/>
<path d="M207.711 35.9336C204.39 35.9336 202.94 38.6463 202.94 41.3174C202.94 44.3903 204.381 46.8491 207.568 46.8491C210.756 46.8491 212.334 44.3836 212.334 41.3309C212.334 38.2782 210.853 35.9336 207.711 35.9336ZM207.654 45.3362C205.81 45.3362 204.901 43.5613 204.901 41.3148C204.901 39.0682 205.718 37.4465 207.631 37.4465C209.543 37.4465 210.395 39.2187 210.395 41.3349C210.395 43.65 209.633 45.3362 207.654 45.3362Z" fill="#1176C1"/>
<path d="M224.808 42.8274C224.808 44.2463 224.411 45.3319 222.685 45.3319C220.96 45.3319 220.516 44.1966 220.516 42.8328V36.0785H218.616V42.9161C218.616 45.2513 219.618 46.8489 222.643 46.8489C225.668 46.8489 226.724 45.1076 226.724 42.8785V36.0771H224.808V42.8274Z" fill="#1176C1"/>
<path d="M237.325 36.0771H233.497V46.6944H235.393V42.4365H237.143C239.416 42.4365 241.001 41.3374 241.001 39.1715C241.001 37.0056 239.334 36.0771 237.327 36.0771H237.325ZM237.034 40.9397H235.393V37.582H237.084C238.26 37.582 239.074 38.0711 239.074 39.2104C239.074 40.4949 238.276 40.941 237.034 40.941V40.9397Z" fill="#1176C1"/>
<path d="M75.1202 19.7954C76.5527 19.2351 77.9119 17.9815 77.9119 15.4958C77.9119 12.7172 76.0019 10.0757 70.8715 10.0757H61.3867V31.2389H70.725C75.7265 31.2389 78.6064 28.6941 78.6064 24.8205C78.6064 21.9317 76.7656 20.4309 75.1202 19.7954ZM67.099 13.9775H69.6629C71.2066 13.9775 72.1955 14.6372 72.1955 16.1313C72.1955 17.6254 71.3938 18.265 69.5313 18.265H67.0977V13.9775H67.099ZM69.7239 27.3572H67.099V22.0593H69.4797C71.5837 22.0593 72.5645 22.9596 72.5645 24.7224C72.5645 26.6532 71.2934 27.3559 69.7239 27.3559V27.3572Z" fill="url(#paint1_linear_1121_1987)"/>
<path d="M85.1935 25.5933H80.0645V31.2284H85.1935V25.5933Z" fill="url(#paint2_linear_1121_1987)"/>
<path d="M104.169 15.8774C104.169 12.5184 101.608 10.0757 96.9167 10.0757H87.1714V31.2389H92.9054V23.1101H94.9402C97.211 23.1101 97.9435 23.7738 97.9435 25.9854V26.5833C97.9435 29.0112 98.048 30.3642 98.36 31.2389H104.013C103.835 30.2057 103.764 28.3569 103.764 26.5887V25.9357C103.764 23.501 103.101 21.71 100.879 20.8649C102.71 20.1434 104.167 18.7191 104.167 15.8761L104.169 15.8774ZM95.3824 18.9556H92.9068V14.2086H95.7555C97.2504 14.2086 98.3695 14.8482 98.3695 16.5062C98.3695 18.2986 97.1323 18.957 95.3824 18.957V18.9556Z" fill="url(#paint3_linear_1121_1987)"/>
<path d="M111.343 25.5933H106.214V31.2284H111.343V25.5933Z" fill="url(#paint4_linear_1121_1987)"/>
<path d="M128.221 27.3508C125.468 27.3508 124.571 24.6153 124.571 20.6798C124.571 16.7444 125.458 13.9833 128.213 13.9833C130.514 13.9833 131.043 15.4115 131.349 17.0212H137.13C136.963 13.7629 134.8 9.70117 128.303 9.70117C121.805 9.70117 118.464 14.643 118.464 20.7C118.464 26.757 120.876 31.6356 128.094 31.6356C133.943 31.6356 136.649 28.38 137.233 24.2108H131.432C131.154 25.6566 130.537 27.3522 128.22 27.3522L128.221 27.3508Z" fill="url(#paint5_linear_1121_1987)"/>
<path d="M148.836 9.69971C141.614 9.69971 138.623 15.0137 138.623 20.5238C138.623 26.6977 141.554 31.6342 148.503 31.6342C155.818 31.6342 158.759 26.7286 158.759 20.5426C158.759 14.8175 155.738 9.69971 148.836 9.69971ZM148.722 27.3722C145.956 27.3722 144.749 24.5614 144.749 20.501C144.749 16.4406 145.815 13.9737 148.65 13.9737C151.751 13.9737 152.652 16.7564 152.652 20.4889C152.652 24.7858 151.72 27.3722 148.721 27.3722H148.722Z" fill="url(#paint6_linear_1121_1987)"/>
<path d="M167.011 10.0757H161.117V31.2389H175.446L176.044 26.8198H167.011V10.0757Z" fill="url(#paint7_linear_1121_1987)"/>
<path d="M183.394 10.0757H177.5V31.2389H191.828L192.427 26.8198H183.394V10.0757Z" fill="url(#paint8_linear_1121_1987)"/>
<path d="M199.776 10.0757H193.882V31.2389H199.776V10.0757Z" fill="url(#paint9_linear_1121_1987)"/>
<path d="M215.667 14.7286C215.667 18.0164 215.741 21.6415 215.96 24.1151H215.854C215.596 23.2256 214.675 20.7869 210.154 10.0757H203.024V31.2389H208.404V26.508C208.404 22.8454 208.394 19.2216 208.206 16.564H208.27C208.54 17.3581 209.254 19.262 214.179 31.2389H221.058V10.0757H215.667V14.7286Z" fill="url(#paint10_linear_1121_1987)"/>
<path d="M233.01 18.0099C230.153 17.2078 229.202 16.8262 229.202 15.5162C229.202 14.3849 229.988 13.7211 231.438 13.7211C233.326 13.7211 233.938 14.8108 234.11 16.1343H239.68C239.441 12.2176 236.7 9.69971 231.414 9.69971C226.942 9.69971 223.437 11.8979 223.437 16.1638C223.437 19.1265 225.035 21.1338 230.353 22.5594C233.264 23.3521 234.285 24.0401 234.285 25.5704C234.285 26.7273 233.663 27.5429 231.698 27.5429C229.734 27.5429 228.742 26.4908 228.517 24.771H222.895C223.133 28.9926 226.242 31.6153 231.525 31.6153C237.187 31.6153 240.209 28.955 240.209 24.9268C240.209 21.7156 238.644 19.5967 233.009 18.0086L233.01 18.0099Z" fill="url(#paint11_linear_1121_1987)"/>
</g>
<defs>
<linearGradient id="paint0_linear_1121_1987" x1="3.66668" y1="28.4993" x2="35.3944" y2="28.4993" gradientUnits="userSpaceOnUse">
<stop stop-color="#1176C1"/>
<stop offset="1" stop-color="#07B6E5"/>
</linearGradient>
<linearGradient id="paint1_linear_1121_1987" x1="57.697" y1="19.6516" x2="236.648" y2="40.4431" gradientUnits="userSpaceOnUse">
<stop stop-color="#F86537"/>
<stop offset="1" stop-color="#F6AA3D"/>
</linearGradient>
<linearGradient id="paint2_linear_1121_1987" x1="57.0184" y1="25.4911" x2="235.97" y2="46.2814" gradientUnits="userSpaceOnUse">
<stop stop-color="#F86537"/>
<stop offset="1" stop-color="#F6AA3D"/>
</linearGradient>
<linearGradient id="paint3_linear_1121_1987" x1="58.0346" y1="16.74" x2="236.987" y2="37.5302" gradientUnits="userSpaceOnUse">
<stop stop-color="#F86537"/>
<stop offset="1" stop-color="#F6AA3D"/>
</linearGradient>
<linearGradient id="paint4_linear_1121_1987" x1="57.3605" y1="22.55" x2="236.311" y2="43.3401" gradientUnits="userSpaceOnUse">
<stop stop-color="#F86537"/>
<stop offset="1" stop-color="#F6AA3D"/>
</linearGradient>
<linearGradient id="paint5_linear_1121_1987" x1="58.5014" y1="12.7243" x2="237.454" y2="33.5145" gradientUnits="userSpaceOnUse">
<stop stop-color="#F86537"/>
<stop offset="1" stop-color="#F6AA3D"/>
</linearGradient>
<linearGradient id="paint6_linear_1121_1987" x1="58.7686" y1="10.4226" x2="237.721" y2="31.2127" gradientUnits="userSpaceOnUse">
<stop stop-color="#F86537"/>
<stop offset="1" stop-color="#F6AA3D"/>
</linearGradient>
<linearGradient id="paint7_linear_1121_1987" x1="58.9723" y1="8.67967" x2="237.923" y2="29.4698" gradientUnits="userSpaceOnUse">
<stop stop-color="#F86537"/>
<stop offset="1" stop-color="#F6AA3D"/>
</linearGradient>
<linearGradient id="paint8_linear_1121_1987" x1="59.1848" y1="6.83624" x2="238.137" y2="27.6264" gradientUnits="userSpaceOnUse">
<stop stop-color="#F86537"/>
<stop offset="1" stop-color="#F6AA3D"/>
</linearGradient>
<linearGradient id="paint9_linear_1121_1987" x1="59.3994" y1="4.9928" x2="238.351" y2="25.7843" gradientUnits="userSpaceOnUse">
<stop stop-color="#F86537"/>
<stop offset="1" stop-color="#F6AA3D"/>
</linearGradient>
<linearGradient id="paint10_linear_1121_1987" x1="59.5987" y1="3.28239" x2="238.55" y2="24.0725" gradientUnits="userSpaceOnUse">
<stop stop-color="#F86537"/>
<stop offset="1" stop-color="#F6AA3D"/>
</linearGradient>
<linearGradient id="paint11_linear_1121_1987" x1="59.8526" y1="1.09522" x2="238.805" y2="21.8854" gradientUnits="userSpaceOnUse">
<stop stop-color="#F86537"/>
<stop offset="1" stop-color="#F6AA3D"/>
</linearGradient>
<clipPath id="clip0_1121_1987">
<rect width="241" height="57" fill="white"/>
</clipPath>
</defs>
</svg>
