<svg width="24" height="24" viewBox="0 0 24 24" fill="none" xmlns="http://www.w3.org/2000/svg">
<path d="M2.40039 5.3998H21.6004M9.60039 17.3998V10.1998M14.4004 17.3998V10.1998M16.8004 22.1998H7.20039C5.87491 22.1998 4.80039 21.1253 4.80039 19.7998V6.5998C4.80039 5.93706 5.33765 5.3998 6.00039 5.3998H18.0004C18.6631 5.3998 19.2004 5.93706 19.2004 6.5998V19.7998C19.2004 21.1253 18.1259 22.1998 16.8004 22.1998ZM9.60039 5.3998H14.4004C15.0631 5.3998 15.6004 4.86255 15.6004 4.1998V2.9998C15.6004 2.33706 15.0631 1.7998 14.4004 1.7998H9.60039C8.93765 1.7998 8.40039 2.33706 8.40039 2.9998V4.1998C8.40039 4.86255 8.93765 5.3998 9.60039 5.3998Z" stroke="#FA9A7D" stroke-width="2" stroke-linecap="round" stroke-linejoin="round"/>
</svg>
